<?xml version="1.0" encoding="UTF-8" standalone="no"?><!DOCTYPE svg PUBLIC "-//W3C//DTD SVG 1.1//EN" "http://www.w3.org/Graphics/SVG/1.1/DTD/svg11.dtd"><svg width="100%" height="100%" viewBox="0 0 2134 1965" version="1.1" xmlns="http://www.w3.org/2000/svg" xmlns:xlink="http://www.w3.org/1999/xlink" xml:space="preserve" xmlns:serif="http://www.serif.com/" style="fill-rule:evenodd;clip-rule:evenodd;stroke-linejoin:round;stroke-miterlimit:2;"><g><path d="M974.999,2.545c-307.539,31.746 -576.587,197.222 -739.682,454.365c-46.825,73.809 -91.666,173.412 -110.714,246.031c-11.111,40.873 -9.127,54.762 8.73,63.889c28.572,14.683 40.873,2.381 60.714,-60.317c44.842,-141.27 113.889,-257.143 218.254,-363.889c140.476,-144.444 321.825,-236.904 525.396,-267.857c57.937,-8.73 183.334,-9.92 241.667,-1.984c311.904,41.667 571.428,227.381 708.729,506.746c15.873,32.143 36.905,83.73 47.223,114.285c19.444,60.715 38.888,144.048 34.126,148.81c-1.587,1.587 -15.476,-9.524 -30.952,-24.603c-30.159,-28.969 -41.27,-36.508 -55.159,-36.508c-13.888,-0 -28.968,18.254 -28.968,34.523c0,13.096 5.159,19.445 57.143,68.254c100.397,94.048 101.587,94.842 123.413,75.397c14.682,-13.492 98.412,-165.873 98.412,-179.762c0,-14.285 -17.063,-31.746 -31.349,-31.746c-18.254,0 -26.19,7.143 -44.048,40.08c-9.523,17.063 -18.65,29.762 -20.238,27.777c-1.587,-1.587 -5.555,-16.269 -8.333,-32.539c-3.175,-15.873 -11.508,-50.794 -19.444,-76.984c-45.635,-158.73 -129.762,-299.603 -251.191,-421.032c-153.968,-153.571 -330.952,-242.063 -553.174,-276.983c-49.603,-7.54 -181.746,-11.111 -230.555,-5.953Z" style="fill-rule:nonzero;"/><path d="M983.332,285.878c-195.238,26.984 -361.507,123.413 -476.983,276.984c-65.476,86.905 -109.127,187.302 -130.159,298.809c-9.921,53.969 -9.921,185.714 0,239.683c27.778,146.428 91.27,268.253 194.444,372.222c104.762,105.158 228.572,170.634 376.587,198.412c53.572,9.921 185.714,9.921 239.286,0c264.682,-50 475.793,-237.698 550.793,-490.476c21.825,-74.206 26.984,-110.714 26.984,-199.999c-0,-89.286 -5.159,-125.794 -26.984,-200c-74.603,-251.587 -287.698,-441.667 -548.809,-489.682c-42.857,-7.937 -165.476,-11.508 -205.159,-5.953Zm83.334,62.302l-0,78.968l-26.191,-0c-60.714,-0 -157.143,25 -220.238,56.746c-133.73,67.46 -233.333,182.539 -280.555,324.206c-18.651,55.555 -26.984,109.524 -26.984,173.413c-0,63.888 8.333,117.857 26.984,173.412c47.222,141.667 146.825,256.746 280.555,324.206c64.286,32.54 158.333,56.349 220.238,56.349l26.191,0l-0,79.762l-30.159,-2.381c-49.603,-4.365 -90.873,-10.714 -125,-19.048c-122.619,-30.952 -238.095,-101.984 -320.238,-197.222c-209.127,-241.269 -207.936,-592.459 2.778,-833.332c113.492,-129.762 275.793,-205.159 461.111,-214.682l11.508,-0.397Zm-23.413,199.603c5.555,5.952 13.095,8.73 23.809,8.73c21.429,-0 32.937,-14.683 32.937,-41.667l-0,-19.444l30.159,3.571c35.714,3.969 92.46,19.445 125.396,34.127l23.81,10.715l-8.334,16.666c-11.111,21.826 -10.714,35.714 1.588,48.413c19.047,18.651 43.254,10.714 58.73,-19.445l6.349,-12.301l19.444,13.492c25,17.857 82.54,75.397 100.397,100.397l13.492,19.444l-16.666,8.333c-26.984,13.889 -33.731,38.096 -15.08,56.746c12.699,12.302 26.588,12.699 48.413,1.588l16.667,-8.334l10.714,23.81c14.682,32.936 30.159,89.682 34.127,125.397l3.571,30.158l-19.444,0c-27.381,0 -41.667,11.508 -41.667,33.334c0,22.222 14.286,33.333 42.46,33.333c17.461,-0 20.239,1.19 18.651,7.143c-1.19,3.968 -3.571,18.65 -4.762,32.539c-3.571,30.159 -19.047,84.127 -32.936,116.27l-10.714,23.413l-16.667,-8.334c-21.825,-11.111 -35.714,-10.714 -48.413,1.588c-18.651,18.65 -11.904,42.857 15.08,56.746l16.666,8.333l-13.492,19.444c-17.857,25 -75.397,82.54 -100.397,100.397l-19.444,13.492l-6.349,-12.698c-15.873,-30.556 -39.286,-38.095 -58.73,-19.048c-12.302,12.699 -12.699,26.587 -1.588,48.413l8.334,16.666l-23.413,10.715c-32.143,13.889 -86.111,29.365 -116.27,32.936c-13.888,1.191 -28.571,3.572 -32.539,4.762c-5.953,1.587 -7.143,-1.19 -7.143,-19.444c-0,-25.794 -12.699,-41.667 -33.333,-41.667c-20.635,0 -33.334,15.873 -33.334,41.27c0,20.635 -0.397,21.032 -11.508,19.047c-6.349,-0.793 -24.206,-3.571 -40.079,-6.349c-32.54,-5.158 -88.889,-22.222 -111.905,-33.73l-15.873,-7.936l8.334,-16.27c11.111,-21.826 10.714,-35.714 -1.588,-48.413c-18.65,-18.651 -42.857,-11.905 -56.746,15.08l-8.333,16.666l-19.444,-13.492c-25,-17.857 -82.54,-75.397 -100.397,-100.397l-13.492,-19.444l16.667,-8.333c26.984,-13.889 33.73,-38.096 15.079,-56.746c-12.698,-12.302 -26.587,-12.699 -48.413,-1.588l-16.27,8.334l-7.936,-15.873c-11.508,-23.016 -28.571,-79.365 -33.73,-111.905c-2.778,-15.873 -5.556,-33.73 -6.349,-40.079c-1.985,-11.111 -1.588,-11.508 19.047,-11.508c25.397,-0 41.27,-12.699 41.27,-33.333c0,-20.635 -15.873,-33.334 -41.667,-33.334c-18.254,0 -21.031,-1.19 -19.444,-7.143c1.19,-3.968 3.571,-18.65 4.762,-32.539c3.571,-30.159 19.047,-84.127 32.936,-116.27l10.715,-23.413l16.666,8.334c21.826,11.111 35.715,10.714 48.413,-1.588c19.048,-19.444 11.508,-42.857 -19.048,-58.73l-12.698,-6.349l13.492,-19.444c17.857,-25 75.397,-82.54 100.397,-100.397l19.444,-13.492l6.349,12.698c15.873,30.556 39.286,38.095 58.73,19.048c12.302,-12.699 12.699,-26.587 1.588,-48.413l-8.334,-16.666l23.81,-10.715c33.333,-14.682 90.079,-30.158 124.206,-33.73l29.365,-3.174l1.984,21.428c1.191,12.698 5.159,25 9.921,30.159Z" style="fill-rule:nonzero;"/><path d="M1066.67,341.885c353.295,0 640.125,286.831 640.125,640.126c0,353.294 -286.83,640.125 -640.125,640.125c-353.295,0 -640.126,-286.831 -640.126,-640.125c0,-353.295 286.831,-640.126 640.126,-640.126Zm-0,86.233c305.701,-0 553.892,248.191 553.892,553.893c0,305.701 -248.191,553.892 -553.892,553.892c-305.702,0 -553.893,-248.191 -553.893,-553.892c0,-305.702 248.191,-553.893 553.893,-553.893Z" style="fill:#fbbf07;"/><path d="M1055.55,619.211c-21.428,8.334 -22.222,13.492 -22.222,142.064l0,119.841l-14.682,6.746c-17.461,8.333 -42.461,35.317 -50.397,54.365c-6.746,16.666 -7.54,51.587 -1.19,74.206c6.349,23.016 42.857,58.73 66.666,65.079c28.968,7.937 66.27,3.572 86.508,-9.523l16.667,-11.111l68.254,39.285c37.301,21.826 72.222,39.683 77.38,39.683c11.508,-0 34.127,-21.032 34.127,-32.143c-0.396,-17.46 -13.492,-28.572 -77.381,-65.476l-66.269,-38.492l-2.381,-26.588c-1.588,-14.682 -5.953,-33.73 -9.921,-42.46c-8.333,-17.063 -34.92,-43.254 -50.397,-49.206l-10.317,-3.572l-0,-121.031c-0,-119.048 -0,-120.635 -9.524,-130.952c-11.111,-12.302 -22.619,-15.873 -34.921,-10.715Z" style="fill-rule:nonzero;"/><path d="M98.413,1003.34c-14.683,13.492 -98.413,165.873 -98.413,179.762c-0,14.285 17.063,31.746 31.349,31.746c18.254,-0 26.191,-7.143 44.048,-39.683c16.666,-30.555 24.603,-36.111 24.603,-17.46c-0,5.159 6.349,34.524 14.286,65.476c61.904,245.238 216.666,456.746 434.92,594.444c66.666,42.063 164.285,85.714 240.476,107.143c225.793,63.492 455.555,49.999 663.491,-39.286c213.889,-91.667 395.238,-263.889 494.444,-468.65c43.254,-88.889 73.413,-179.762 67.46,-202.778c-2.777,-11.508 -20.635,-24.206 -33.333,-24.206c-15.079,-0 -27.381,19.047 -42.46,66.666c-44.445,140.476 -112.302,254.365 -213.889,359.524c-143.254,148.412 -323.015,240.476 -529.761,272.222c-65.873,9.92 -188.492,9.92 -255.952,-0c-265.873,-40.08 -490.873,-182.54 -636.905,-402.778c-35.317,-53.174 -84.523,-153.174 -103.968,-212.301c-13.889,-41.27 -36.111,-132.54 -36.111,-147.222c0,-11.508 5.159,-8.334 31.349,18.254c38.096,39.285 56.35,45.635 75,26.984c6.746,-6.746 10.318,-14.683 10.318,-24.206c-0,-13.096 -5.556,-19.445 -55.556,-65.873c-87.301,-81.746 -93.65,-87.302 -104.762,-87.302c-5.555,0 -15.079,4.365 -20.634,9.524Z" style="fill-rule:nonzero;"/></g></svg>